<svg xmlns="http://www.w3.org/2000/svg" viewBox="0 0 512 512"><rect width="512" height="512" fill="#1a1a2e" rx="64"/><circle cx="256" cy="256" r="180" fill="none" stroke="#e94560" stroke-width="8"/><line x1="256" y1="256" x2="256" y2="140" stroke="#eaeaea" stroke-width="10" stroke-linecap="round" transform="rotate(-60 256 256)"/><line x1="256" y1="256" x2="256" y2="100" stroke="#eaeaea" stroke-width="8" stroke-linecap="round" transform="rotate(30 256 256)"/><circle cx="256" cy="256" r="12" fill="#e94560"/><line x1="256" y1="90" x2="256" y2="110" stroke="#a0a0b0" stroke-width="6" transform="rotate(0 256 256)"/><line x1="256" y1="90" x2="256" y2="110" stroke="#a0a0b0" stroke-width="6" transform="rotate(30 256 256)"/><line x1="256" y1="90" x2="256" y2="110" stroke="#a0a0b0" stroke-width="6" transform="rotate(60 256 256)"/><line x1="256" y1="90" x2="256" y2="110" stroke="#a0a0b0" stroke-width="6" transform="rotate(90 256 256)"/><line x1="256" y1="90" x2="256" y2="110" stroke="#a0a0b0" stroke-width="6" transform="rotate(120 256 256)"/><line x1="256" y1="90" x2="256" y2="110" stroke="#a0a0b0" stroke-width="6" transform="rotate(150 256 256)"/><line x1="256" y1="90" x2="256" y2="110" stroke="#a0a0b0" stroke-width="6" transform="rotate(180 256 256)"/><line x1="256" y1="90" x2="256" y2="110" stroke="#a0a0b0" stroke-width="6" transform="rotate(210 256 256)"/><line x1="256" y1="90" x2="256" y2="110" stroke="#a0a0b0" stroke-width="6" transform="rotate(240 256 256)"/><line x1="256" y1="90" x2="256" y2="110" stroke="#a0a0b0" stroke-width="6" transform="rotate(270 256 256)"/><line x1="256" y1="90" x2="256" y2="110" stroke="#a0a0b0" stroke-width="6" transform="rotate(300 256 256)"/><line x1="256" y1="90" x2="256" y2="110" stroke="#a0a0b0" stroke-width="6" transform="rotate(330 256 256)"/></svg>